<mxfile host="app.diagrams.net" modified="2023-03-31T14:07:35.222Z" agent="Mozilla/5.0 (X11; Linux x86_64; rv:109.0) Gecko/20100101 Firefox/111.0" etag="FXF1d9XENdtQqwp_rTxU" version="21.1.2" type="device">
  <diagram name="Pagina-1" id="oQUBDU-Krash39eg13rm">
    <mxGraphModel dx="1182" dy="455" grid="1" gridSize="10" guides="1" tooltips="1" connect="1" arrows="1" fold="1" page="1" pageScale="1" pageWidth="827" pageHeight="1169" math="0" shadow="0">
      <root>
        <mxCell id="0" />
        <mxCell id="1" parent="0" />
        <mxCell id="rUPUNQaYXDMOuWaEgvEr-9" style="edgeStyle=orthogonalEdgeStyle;rounded=0;orthogonalLoop=1;jettySize=auto;html=1;exitX=1;exitY=0.5;exitDx=0;exitDy=0;entryX=0;entryY=0.5;entryDx=0;entryDy=0;strokeWidth=3;endArrow=none;endFill=0;fillColor=#d5e8d4;strokeColor=#82b366;" edge="1" parent="1" source="rUPUNQaYXDMOuWaEgvEr-1" target="rUPUNQaYXDMOuWaEgvEr-7">
          <mxGeometry relative="1" as="geometry" />
        </mxCell>
        <mxCell id="rUPUNQaYXDMOuWaEgvEr-16" value="&lt;div&gt;100&lt;/div&gt;" style="edgeLabel;html=1;align=center;verticalAlign=middle;resizable=0;points=[];" vertex="1" connectable="0" parent="rUPUNQaYXDMOuWaEgvEr-9">
          <mxGeometry x="-0.1952" y="1" relative="1" as="geometry">
            <mxPoint as="offset" />
          </mxGeometry>
        </mxCell>
        <mxCell id="rUPUNQaYXDMOuWaEgvEr-10" style="edgeStyle=orthogonalEdgeStyle;rounded=0;orthogonalLoop=1;jettySize=auto;html=1;exitX=0.5;exitY=1;exitDx=0;exitDy=0;curved=1;endArrow=none;endFill=0;" edge="1" parent="1" source="rUPUNQaYXDMOuWaEgvEr-1" target="rUPUNQaYXDMOuWaEgvEr-6">
          <mxGeometry relative="1" as="geometry" />
        </mxCell>
        <mxCell id="rUPUNQaYXDMOuWaEgvEr-22" value="&lt;div&gt;180&lt;/div&gt;" style="edgeLabel;html=1;align=center;verticalAlign=middle;resizable=0;points=[];" vertex="1" connectable="0" parent="rUPUNQaYXDMOuWaEgvEr-10">
          <mxGeometry x="0.2783" y="1" relative="1" as="geometry">
            <mxPoint as="offset" />
          </mxGeometry>
        </mxCell>
        <mxCell id="rUPUNQaYXDMOuWaEgvEr-12" style="rounded=0;orthogonalLoop=1;jettySize=auto;html=1;exitX=1;exitY=1;exitDx=0;exitDy=0;endArrow=none;endFill=0;fillColor=#d5e8d4;strokeColor=#82b366;strokeWidth=3;" edge="1" parent="1" source="rUPUNQaYXDMOuWaEgvEr-1" target="rUPUNQaYXDMOuWaEgvEr-5">
          <mxGeometry relative="1" as="geometry" />
        </mxCell>
        <mxCell id="rUPUNQaYXDMOuWaEgvEr-18" value="&lt;div&gt;200&lt;/div&gt;" style="edgeLabel;html=1;align=center;verticalAlign=middle;resizable=0;points=[];" vertex="1" connectable="0" parent="rUPUNQaYXDMOuWaEgvEr-12">
          <mxGeometry x="-0.2292" y="1" relative="1" as="geometry">
            <mxPoint as="offset" />
          </mxGeometry>
        </mxCell>
        <mxCell id="rUPUNQaYXDMOuWaEgvEr-1" value="A" style="ellipse;whiteSpace=wrap;html=1;aspect=fixed;fillColor=#fff2cc;strokeColor=#d6b656;" vertex="1" parent="1">
          <mxGeometry x="20" y="230" width="80" height="80" as="geometry" />
        </mxCell>
        <mxCell id="rUPUNQaYXDMOuWaEgvEr-5" value="D" style="ellipse;whiteSpace=wrap;html=1;aspect=fixed;" vertex="1" parent="1">
          <mxGeometry x="240" y="400" width="80" height="80" as="geometry" />
        </mxCell>
        <mxCell id="rUPUNQaYXDMOuWaEgvEr-14" style="edgeStyle=orthogonalEdgeStyle;rounded=0;orthogonalLoop=1;jettySize=auto;html=1;endArrow=none;endFill=0;" edge="1" parent="1" source="rUPUNQaYXDMOuWaEgvEr-6" target="rUPUNQaYXDMOuWaEgvEr-5">
          <mxGeometry relative="1" as="geometry" />
        </mxCell>
        <mxCell id="rUPUNQaYXDMOuWaEgvEr-21" value="&lt;div&gt;120&lt;/div&gt;" style="edgeLabel;html=1;align=center;verticalAlign=middle;resizable=0;points=[];" vertex="1" connectable="0" parent="rUPUNQaYXDMOuWaEgvEr-14">
          <mxGeometry x="0.1857" relative="1" as="geometry">
            <mxPoint as="offset" />
          </mxGeometry>
        </mxCell>
        <mxCell id="rUPUNQaYXDMOuWaEgvEr-6" value="C" style="ellipse;whiteSpace=wrap;html=1;aspect=fixed;" vertex="1" parent="1">
          <mxGeometry x="20" y="400" width="80" height="80" as="geometry" />
        </mxCell>
        <mxCell id="rUPUNQaYXDMOuWaEgvEr-13" style="edgeStyle=orthogonalEdgeStyle;rounded=0;orthogonalLoop=1;jettySize=auto;html=1;endArrow=none;endFill=0;fillColor=#d5e8d4;strokeColor=#82b366;strokeWidth=3;" edge="1" parent="1" source="rUPUNQaYXDMOuWaEgvEr-7" target="rUPUNQaYXDMOuWaEgvEr-5">
          <mxGeometry relative="1" as="geometry">
            <Array as="points">
              <mxPoint x="280" y="330" />
              <mxPoint x="280" y="330" />
            </Array>
          </mxGeometry>
        </mxCell>
        <mxCell id="rUPUNQaYXDMOuWaEgvEr-20" value="&lt;div&gt;190&lt;/div&gt;" style="edgeLabel;html=1;align=center;verticalAlign=middle;resizable=0;points=[];" vertex="1" connectable="0" parent="rUPUNQaYXDMOuWaEgvEr-13">
          <mxGeometry x="0.1619" y="2" relative="1" as="geometry">
            <mxPoint as="offset" />
          </mxGeometry>
        </mxCell>
        <mxCell id="rUPUNQaYXDMOuWaEgvEr-15" style="rounded=0;orthogonalLoop=1;jettySize=auto;html=1;entryX=0.884;entryY=0.183;entryDx=0;entryDy=0;entryPerimeter=0;endArrow=none;endFill=0;exitX=0;exitY=1;exitDx=0;exitDy=0;" edge="1" parent="1" source="rUPUNQaYXDMOuWaEgvEr-7" target="rUPUNQaYXDMOuWaEgvEr-6">
          <mxGeometry relative="1" as="geometry" />
        </mxCell>
        <mxCell id="rUPUNQaYXDMOuWaEgvEr-19" value="&lt;div&gt;175&lt;/div&gt;" style="edgeLabel;html=1;align=center;verticalAlign=middle;resizable=0;points=[];" vertex="1" connectable="0" parent="rUPUNQaYXDMOuWaEgvEr-15">
          <mxGeometry x="-0.3345" y="2" relative="1" as="geometry">
            <mxPoint as="offset" />
          </mxGeometry>
        </mxCell>
        <mxCell id="rUPUNQaYXDMOuWaEgvEr-7" value="B" style="ellipse;whiteSpace=wrap;html=1;aspect=fixed;" vertex="1" parent="1">
          <mxGeometry x="240" y="230" width="80" height="80" as="geometry" />
        </mxCell>
        <mxCell id="rUPUNQaYXDMOuWaEgvEr-17" value="&lt;p&gt;Sugli archi abbiamo i costi delle tratte&lt;br&gt;&lt;/p&gt;&lt;p&gt;La partenza e&#39; gialla&lt;/p&gt;&lt;p&gt;Shortest path ABDA (590)&lt;/p&gt;&lt;p&gt;ALICE [5,3,1]&lt;br&gt;&lt;/p&gt;&lt;p&gt;BOB [2,3,5]&lt;br&gt;&lt;/p&gt;&lt;p&gt;&lt;br&gt;&lt;/p&gt;&lt;p&gt;Alice: &lt;br&gt;&lt;/p&gt;&lt;p&gt;&lt;span style=&quot;white-space: pre;&quot;&gt;	&lt;/span&gt;Lo shortest path senza alice e&#39; ADA (400) &lt;br&gt;&lt;/p&gt;&lt;p&gt;&lt;span style=&quot;white-space: pre;&quot;&gt;	5 - 100 &lt;/span&gt;&lt;br&gt;&lt;/p&gt;&lt;p&gt;Bob:&amp;nbsp;&lt;/p&gt;&lt;p&gt;La mia domanda e&#39; come legare il costo &lt;br&gt;&lt;/p&gt;" style="text;html=1;strokeColor=none;fillColor=none;spacing=5;spacingTop=-20;whiteSpace=wrap;overflow=hidden;rounded=0;" vertex="1" parent="1">
          <mxGeometry x="400" y="230" width="420" height="290" as="geometry" />
        </mxCell>
        <mxCell id="rUPUNQaYXDMOuWaEgvEr-24" value="&lt;div&gt;Bob&lt;/div&gt;" style="shape=umlActor;verticalLabelPosition=bottom;verticalAlign=top;html=1;outlineConnect=0;" vertex="1" parent="1">
          <mxGeometry x="330" y="410" width="30" height="60" as="geometry" />
        </mxCell>
        <mxCell id="rUPUNQaYXDMOuWaEgvEr-25" value="Alice" style="shape=umlActor;verticalLabelPosition=bottom;verticalAlign=top;html=1;outlineConnect=0;" vertex="1" parent="1">
          <mxGeometry x="330" y="240" width="30" height="60" as="geometry" />
        </mxCell>
      </root>
    </mxGraphModel>
  </diagram>
</mxfile>
